<?xml version="1.0" encoding="utf-8"?>
<!-- Generator: Adobe Illustrator 24.0.0, SVG Export Plug-In . SVG Version: 6.00 Build 0)  -->
<svg version="1.1"
	 id="svg2882" xmlns:cc="http://creativecommons.org/ns#" xmlns:dc="http://purl.org/dc/elements/1.1/" xmlns:inkscape="http://www.inkscape.org/namespaces/inkscape" xmlns:rdf="http://www.w3.org/1999/02/22-rdf-syntax-ns#" xmlns:sodipodi="http://sodipodi.sourceforge.net/DTD/sodipodi-0.dtd" xmlns:svg="http://www.w3.org/2000/svg"
	 xmlns="http://www.w3.org/2000/svg" xmlns:xlink="http://www.w3.org/1999/xlink" x="0px" y="0px" viewBox="0 0 528.7 166.2"
	 style="enable-background:new 0 0 528.7 166.2;" xml:space="preserve">
<style type="text/css">
	.st0{fill:#FFFFFF;}
	.st1{clip-path:url(#SVGID_2_);}
	.st2{fill:none;stroke:#211E1E;stroke-width:1.9264;stroke-miterlimit:1.9264;}
	.st3{fill:none;stroke:#211E1E;stroke-width:1.9264;stroke-miterlimit:28.3465;}
	.st4{clip-path:url(#SVGID_4_);}
	.st5{clip-path:url(#SVGID_6_);}
	.st6{clip-path:url(#SVGID_8_);}
	.st7{fill:none;stroke:#BDBABA;stroke-width:1.5238;stroke-linecap:square;stroke-miterlimit:9.2126;}
	.st8{fill:#BDBABA;}
	.st9{fill:#211E1E;}
	.st10{fill:#A6A3A6;}
	
		.st11{fill:none;stroke:#7A7878;stroke-width:0.4816;stroke-linecap:square;stroke-miterlimit:9.2126;stroke-dasharray:11.5584,11.5584;}
	.st12{fill:#676767;}
	.st13{font-family:'MyriadPro-Regular';}
	.st14{font-size:14.9244px;}
	.st15{font-size:18px;}
	.st16{fill:none;stroke:#000000;stroke-width:0.75;stroke-miterlimit:11.3386;}
	.st17{fill:none;stroke:#00FF00;stroke-width:2.3202;stroke-miterlimit:11.3386;}
	.st18{fill:none;}
	.st19{fill-rule:evenodd;clip-rule:evenodd;fill:#808080;stroke:#808080;stroke-width:2.8346;stroke-miterlimit:11.3386;}
	.st20{fill:#808080;}
	.st21{font-family:'HelveticaNeueforSAS';}
	.st22{fill:none;stroke:#808080;stroke-width:0.6406;stroke-miterlimit:2.5625;}
</style>
<sodipodi:namedview  bordercolor="#666666" borderopacity="1.0" fit-margin-bottom="0" fit-margin-left="0" fit-margin-right="0" fit-margin-top="0" id="base" inkscape:current-layer="layer1" inkscape:cx="396.83639" inkscape:cy="191.99651" inkscape:document-rotation="0" inkscape:document-units="mm" inkscape:lockguides="false" inkscape:pageopacity="0.0" inkscape:pageshadow="2" inkscape:window-height="1016" inkscape:window-maximized="1" inkscape:window-width="1848" inkscape:window-x="72" inkscape:window-y="27" inkscape:zoom="0.93560606" pagecolor="#ffffff" showgrid="false" units="in">
	</sodipodi:namedview>
<path id="path1460" class="st0" d="M68.8,37.8v37.1c0,2.6,6.5,4.6,14.5,4.6c8,0,14.5-2.1,14.5-4.6V37.8"/>
<g>
	<defs>
		<rect id="SVGID_1_" x="30.9" width="105.9" height="109.7"/>
	</defs>
	<clipPath id="SVGID_2_">
		<use xlink:href="#SVGID_1_"  style="overflow:visible;"/>
	</clipPath>
	<g id="g1464" transform="matrix(0.76065472,0,0,0.76065472,35.768076,-89.3903)" class="st1">
		<path id="path1462" class="st2" d="M43.4,167.2V216c0,3.4,8.5,6.1,19,6.1s19-2.7,19-6.1v-48.7"/>
	</g>
</g>
<path id="path1466" class="st0" d="M97.7,37.8c0,2-6.5,3.7-14.5,3.7s-14.5-1.7-14.5-3.7c0-2,6.5-3.7,14.5-3.7
	C91.2,34.1,97.7,35.8,97.7,37.8"/>
<path id="path1468" class="st3" d="M97.7,37.8c0,2-6.5,3.7-14.5,3.7s-14.5-1.7-14.5-3.7c0-2,6.5-3.7,14.5-3.7S97.7,35.8,97.7,37.8z"
	/>
<g>
	<defs>
		<rect id="SVGID_3_" x="80.9" y="76.5" width="5.9" height="33.2"/>
	</defs>
	<clipPath id="SVGID_4_">
		<use xlink:href="#SVGID_3_"  style="overflow:visible;"/>
	</clipPath>
	<g id="g1472" transform="matrix(0.76065472,0,0,0.76065472,35.768076,-89.3903)" class="st4">
		<path id="path1470" class="st2" d="M62.4,222.1v39.6"/>
	</g>
</g>
<g>
	<defs>
		<rect id="SVGID_5_" x="30.9" y="41.2" width="85.3" height="68.5"/>
	</defs>
	<clipPath id="SVGID_6_">
		<use xlink:href="#SVGID_5_"  style="overflow:visible;"/>
	</clipPath>
	<g id="g1476" transform="matrix(0.76065472,0,0,0.76065472,35.768076,-89.3903)" class="st5">
		<path id="path1474" class="st2" d="M54.1,222.1l-10.7,34.7"/>
	</g>
</g>
<g>
	<defs>
		<rect id="SVGID_7_" x="51.5" y="41.2" width="85.3" height="68.5"/>
	</defs>
	<clipPath id="SVGID_8_">
		<use xlink:href="#SVGID_7_"  style="overflow:visible;"/>
	</clipPath>
	<g id="g1480" transform="matrix(0.76065472,0,0,0.76065472,35.768076,-89.3903)" class="st6">
		<path id="path1478" class="st2" d="M70.7,222.1l10.7,34.7"/>
	</g>
</g>
<path id="path1482" class="st7" d="M130.8,60.3h21.8"/>
<path id="path1484" class="st8" d="M151.5,64.1l6.6-3.8l-6.6-3.8V64.1z"/>
<path id="path1490" class="st9" d="M124.4,60.3c0,3-2.4,5.5-5.5,5.5c-3,0-5.5-2.5-5.5-5.5c0-3,2.4-5.5,5.5-5.5
	C121.9,54.8,124.4,57.3,124.4,60.3"/>
<path id="path1492" class="st10" d="M446.2,80.9c0,3-2.4,5.5-5.5,5.5c-3,0-5.5-2.5-5.5-5.5c0-3,2.5-5.5,5.5-5.5
	C443.8,75.5,446.2,77.9,446.2,80.9"/>
<path id="path1494" class="st11" d="M166.2,60.3h274.5"/>
<path id="path1496" class="st11" d="M384.8,80.9H118.9"/>
<path id="path1498" class="st12" d="M472.2,101.2h-14.1V38.9h14.1V101.2"/>
<text transform="matrix(1 0 0 1 3.9297 73.7338)" class="st13 st14">Scanner</text>
<text transform="matrix(1 0 0 1 483.4941 76.1303)" class="st13 st14">Target</text>
<text transform="matrix(1 0 0 1 115.8701 145.6615)" class="st13 st15">distance = </text>
<text transform="matrix(1 0 0 1 204.8486 136.4311)" class="st13 st15">travel time x speed of light</text>
<text transform="matrix(1 0 0 1 297.2539 159.5404)" class="st13 st15">2</text>
<path id="path3112" class="st16" d="M197.3,142h211"/>
<circle id="path3123" class="st17" cx="118.9" cy="60.2" r="9.4"/>
<path class="st18" d=""/>
<path id="path3948" class="st19" d="M126.2,47.1"/>
<text transform="matrix(1 0 0 1 167.6484 19.3959)" class="st20 st21 st14">light signal</text>
<g>
	<g>
		<line class="st22" x1="131.8" y1="44.5" x2="163.6" y2="18.1"/>
		<g>
			<polygon class="st20" points="128.3,47.4 134.8,45.3 132,44.3 131.5,41.3 			"/>
		</g>
	</g>
</g>
<path id="path1482_1_" class="st7" d="M428.5,81.2h-24"/>
<path id="path1484_1_" class="st8" d="M407.7,77.4l-6.6,3.8l6.6,3.8V77.4z"/>
</svg>
